<svg xmlns="http://www.w3.org/2000/svg" width="211.512" height="19.688" viewBox="0 0 211.512 19.688"><defs><style>.a{fill:#fff;}</style></defs><path class="a" d="M.152-18.316H4.266L10.02-4.348l5.754-13.969h4.113L11.859,0H8.18Zm23.883,2.6a2.792,2.792,0,0,1-.932-.146,2.189,2.189,0,0,1-.709-.4,1.763,1.763,0,0,1-.451-.586,1.636,1.636,0,0,1-.158-.709,1.662,1.662,0,0,1,.158-.721,1.7,1.7,0,0,1,.451-.58,2.253,2.253,0,0,1,.709-.393,2.792,2.792,0,0,1,.932-.146,2.83,2.83,0,0,1,.943.146,2.253,2.253,0,0,1,.709.393,1.7,1.7,0,0,1,.451.58,1.662,1.662,0,0,1,.158.721,1.636,1.636,0,0,1-.158.709,1.763,1.763,0,0,1-.451.586,2.189,2.189,0,0,1-.709.4A2.83,2.83,0,0,1,24.035-15.715ZM22.3-13.828H25.77V0H22.3Zm6.844,6.973a6.965,6.965,0,0,1,.621-2.982,6.709,6.709,0,0,1,1.717-2.273,7.742,7.742,0,0,1,2.6-1.453,10.117,10.117,0,0,1,3.264-.51,11.664,11.664,0,0,1,1.482.094,12.826,12.826,0,0,1,1.406.258,10.231,10.231,0,0,1,1.266.393,7.1,7.1,0,0,1,1.049.5v-6.609H46.02V0H42.551V-1.3a6.885,6.885,0,0,1-1.078.6,10.308,10.308,0,0,1-1.336.492,11.873,11.873,0,0,1-1.482.334,9.576,9.576,0,0,1-1.518.123A9.7,9.7,0,0,1,33.908-.27a7.473,7.473,0,0,1-2.525-1.453,6.622,6.622,0,0,1-1.646-2.244A6.921,6.921,0,0,1,29.145-6.855Zm3.645,0a3.766,3.766,0,0,0,.334,1.57,3.827,3.827,0,0,0,.961,1.295,4.64,4.64,0,0,0,1.512.879,5.773,5.773,0,0,0,1.986.322,7.455,7.455,0,0,0,1.406-.135A8.154,8.154,0,0,0,40.342-3.3a7.058,7.058,0,0,0,1.219-.6,5.158,5.158,0,0,0,.99-.785V-9.48a6.263,6.263,0,0,0-1.113-.715,7.8,7.8,0,0,0-1.2-.48,7.981,7.981,0,0,0-1.23-.275,8.613,8.613,0,0,0-1.207-.088,6.49,6.49,0,0,0-2.127.322,4.638,4.638,0,0,0-1.57.885,3.823,3.823,0,0,0-.979,1.324A4.009,4.009,0,0,0,32.789-6.855Zm16.816-.105A6.513,6.513,0,0,1,50.18-9.65a6.821,6.821,0,0,1,1.652-2.268,8.059,8.059,0,0,1,2.643-1.57,10.091,10.091,0,0,1,3.557-.586,10.159,10.159,0,0,1,3.568.592,8,8,0,0,1,2.7,1.623,7.032,7.032,0,0,1,1.7,2.426,7.569,7.569,0,0,1,.592,2.988q0,.2-.006.428t-.029.416H53.473a3.168,3.168,0,0,0,.721,1.137,4.532,4.532,0,0,0,1.248.891,7.116,7.116,0,0,0,1.734.58,10.71,10.71,0,0,0,2.18.205,11.4,11.4,0,0,0,2.379-.252A17.456,17.456,0,0,0,64-3.68l1.172,2.648a14.3,14.3,0,0,1-1.377.557,12.009,12.009,0,0,1-1.453.4,14.916,14.916,0,0,1-1.582.24q-.826.082-1.74.082a13.442,13.442,0,0,1-4.09-.562,8.806,8.806,0,0,1-2.941-1.535A6.337,6.337,0,0,1,50.2-4.137,6.734,6.734,0,0,1,49.605-6.961Zm13.3-1.348a3.457,3.457,0,0,0-.58-1.072,3.83,3.83,0,0,0-.979-.867,5.006,5.006,0,0,0-1.359-.58,6.447,6.447,0,0,0-1.7-.211,6.747,6.747,0,0,0-1.793.223,5.455,5.455,0,0,0-1.418.6,4.026,4.026,0,0,0-1.014.867,3.332,3.332,0,0,0-.592,1.043ZM69.48-6.914a6.546,6.546,0,0,1,.6-2.789,6.754,6.754,0,0,1,1.723-2.273,8.3,8.3,0,0,1,2.707-1.535,10.638,10.638,0,0,1,3.568-.562,10.638,10.638,0,0,1,3.568.563,8.3,8.3,0,0,1,2.707,1.535A6.754,6.754,0,0,1,86.08-9.7a6.546,6.546,0,0,1,.6,2.789,6.546,6.546,0,0,1-.6,2.789,6.754,6.754,0,0,1-1.723,2.273A8.3,8.3,0,0,1,81.65-.316a10.638,10.638,0,0,1-3.568.563,10.638,10.638,0,0,1-3.568-.562,8.3,8.3,0,0,1-2.707-1.535,6.754,6.754,0,0,1-1.723-2.273A6.546,6.546,0,0,1,69.48-6.914Zm3.645,0a3.806,3.806,0,0,0,.334,1.576,3.862,3.862,0,0,0,.973,1.313,4.755,4.755,0,0,0,1.559.9,6.1,6.1,0,0,0,2.092.334,6.1,6.1,0,0,0,2.092-.334,4.755,4.755,0,0,0,1.559-.9,3.862,3.862,0,0,0,.973-1.312,3.806,3.806,0,0,0,.334-1.576A3.846,3.846,0,0,0,82.705-8.5a3.845,3.845,0,0,0-.973-1.318,4.755,4.755,0,0,0-1.559-.9,6.1,6.1,0,0,0-2.092-.334,6.1,6.1,0,0,0-2.092.334,4.755,4.755,0,0,0-1.559.9A3.845,3.845,0,0,0,73.459-8.5,3.846,3.846,0,0,0,73.125-6.914Zm25.465-11.4h9.316a13.469,13.469,0,0,1,3.656.439,7.055,7.055,0,0,1,2.566,1.271,5.128,5.128,0,0,1,1.518,2.027,6.982,6.982,0,0,1,.5,2.707,7.475,7.475,0,0,1-.246,1.939,5.759,5.759,0,0,1-.756,1.693,5.775,5.775,0,0,1-1.283,1.377,6.977,6.977,0,0,1-1.816,1L116.027,0H111.48l-3.445-5.2h-.105L102.3-5.215V0H98.59ZM108-8.426a6.23,6.23,0,0,0,1.846-.246,3.8,3.8,0,0,0,1.324-.691,2.77,2.77,0,0,0,.8-1.084,3.7,3.7,0,0,0,.264-1.424,2.856,2.856,0,0,0-1.055-2.373A5.046,5.046,0,0,0,108-15.082h-5.7v6.656Zm11.449,1.465a6.513,6.513,0,0,1,.574-2.689,6.821,6.821,0,0,1,1.652-2.268,8.059,8.059,0,0,1,2.643-1.57,10.091,10.091,0,0,1,3.557-.586,10.159,10.159,0,0,1,3.568.592,8,8,0,0,1,2.7,1.623,7.032,7.032,0,0,1,1.7,2.426,7.569,7.569,0,0,1,.592,2.988q0,.2-.006.428t-.029.416H123.316a3.168,3.168,0,0,0,.721,1.137,4.532,4.532,0,0,0,1.248.891,7.116,7.116,0,0,0,1.734.58,10.71,10.71,0,0,0,2.18.205,11.4,11.4,0,0,0,2.379-.252,17.456,17.456,0,0,0,2.262-.639l1.172,2.648a14.3,14.3,0,0,1-1.377.557,12.009,12.009,0,0,1-1.453.4,14.916,14.916,0,0,1-1.582.24q-.826.082-1.74.082a13.442,13.442,0,0,1-4.09-.562,8.806,8.806,0,0,1-2.941-1.535,6.337,6.337,0,0,1-1.781-2.285A6.734,6.734,0,0,1,119.449-6.961Zm13.3-1.348a3.457,3.457,0,0,0-.58-1.072,3.83,3.83,0,0,0-.979-.867,5.006,5.006,0,0,0-1.359-.58,6.447,6.447,0,0,0-1.7-.211,6.747,6.747,0,0,0-1.793.223,5.455,5.455,0,0,0-1.418.6,4.026,4.026,0,0,0-1.014.867,3.332,3.332,0,0,0-.592,1.043Zm7.957,4.066A10.79,10.79,0,0,0,143.8-3a14.993,14.993,0,0,0,3.457.4,10.113,10.113,0,0,0,1.992-.164,4.782,4.782,0,0,0,1.277-.422,1.715,1.715,0,0,0,.68-.586,1.274,1.274,0,0,0,.2-.668,1.06,1.06,0,0,0-.428-.844,2.234,2.234,0,0,0-1.412-.352,8.946,8.946,0,0,0-.984.059l-1.107.123q-.58.064-1.207.123T145-5.273a8.222,8.222,0,0,1-2.4-.3,4.507,4.507,0,0,1-1.611-.832,3.1,3.1,0,0,1-.9-1.248,4.233,4.233,0,0,1-.281-1.553,3.955,3.955,0,0,1,.492-1.945A4.652,4.652,0,0,1,141.7-12.7a7.073,7.073,0,0,1,2.209-1.014,10.686,10.686,0,0,1,2.889-.363,15.979,15.979,0,0,1,1.74.1q.908.1,1.787.264t1.688.381a13.155,13.155,0,0,1,1.43.463l-1.09,2.7a19.48,19.48,0,0,0-2.643-.779A12.713,12.713,0,0,0,147-11.238a7.888,7.888,0,0,0-1.646.146,3.91,3.91,0,0,0-1.1.387,1.681,1.681,0,0,0-.615.551,1.212,1.212,0,0,0-.193.65.982.982,0,0,0,.1.445.889.889,0,0,0,.328.346,1.771,1.771,0,0,0,.6.223,4.584,4.584,0,0,0,.908.076,9.88,9.88,0,0,0,1.043-.059l1.148-.123q.6-.064,1.236-.123t1.307-.059a7.265,7.265,0,0,1,2.174.293,4.287,4.287,0,0,1,1.541.82,3.38,3.38,0,0,1,.914,1.242,3.934,3.934,0,0,1,.3,1.559,4.216,4.216,0,0,1-.5,2.027,4.648,4.648,0,0,1-1.5,1.623,7.832,7.832,0,0,1-2.479,1.072,13.645,13.645,0,0,1-3.428.387A17.688,17.688,0,0,1,144.832.1a18.923,18.923,0,0,1-2.121-.4,16.308,16.308,0,0,1-1.893-.592,14.492,14.492,0,0,1-1.611-.727ZM160-15.715a2.792,2.792,0,0,1-.932-.146,2.189,2.189,0,0,1-.709-.4,1.763,1.763,0,0,1-.451-.586,1.636,1.636,0,0,1-.158-.709,1.662,1.662,0,0,1,.158-.721,1.7,1.7,0,0,1,.451-.58,2.253,2.253,0,0,1,.709-.393,2.792,2.792,0,0,1,.932-.146,2.83,2.83,0,0,1,.943.146,2.253,2.253,0,0,1,.709.393,1.7,1.7,0,0,1,.451.58,1.662,1.662,0,0,1,.158.721,1.636,1.636,0,0,1-.158.709,1.763,1.763,0,0,1-.451.586,2.189,2.189,0,0,1-.709.4A2.83,2.83,0,0,1,160-15.715Zm-1.734,1.887h3.469V0h-3.469Zm14.578,2.883h-7.09v-2.883h13.523L170.742-2.883H178.8V0H164.367Zm8.66,3.984a6.513,6.513,0,0,1,.574-2.689,6.821,6.821,0,0,1,1.652-2.268,8.059,8.059,0,0,1,2.643-1.57,10.091,10.091,0,0,1,3.557-.586,10.159,10.159,0,0,1,3.568.592,8,8,0,0,1,2.7,1.623,7.032,7.032,0,0,1,1.7,2.426,7.569,7.569,0,0,1,.592,2.988q0,.2-.006.428t-.029.416H185.367a3.168,3.168,0,0,0,.721,1.137,4.532,4.532,0,0,0,1.248.891,7.116,7.116,0,0,0,1.734.58,10.71,10.71,0,0,0,2.18.205,11.4,11.4,0,0,0,2.379-.252,17.456,17.456,0,0,0,2.262-.639l1.172,2.648a14.3,14.3,0,0,1-1.377.557,12.009,12.009,0,0,1-1.453.4,14.916,14.916,0,0,1-1.582.24q-.826.082-1.74.082a13.442,13.442,0,0,1-4.09-.562,8.806,8.806,0,0,1-2.941-1.535A6.337,6.337,0,0,1,182.1-4.137,6.734,6.734,0,0,1,181.5-6.961Zm13.3-1.348a3.457,3.457,0,0,0-.58-1.072,3.83,3.83,0,0,0-.979-.867,5.006,5.006,0,0,0-1.359-.58,6.447,6.447,0,0,0-1.7-.211,6.747,6.747,0,0,0-1.793.223,5.455,5.455,0,0,0-1.418.6,4.026,4.026,0,0,0-1.014.867,3.332,3.332,0,0,0-.592,1.043Zm7.406-5.52h3.469v1.992a15.123,15.123,0,0,1,2.426-1.477,13.653,13.653,0,0,1,2.543-.949l1.02,3.176a11.006,11.006,0,0,0-3.521.9,6.321,6.321,0,0,0-2.467,1.963V0h-3.469Z" transform="translate(-0.152 19.441)"/></svg>